<?xml version="1.0" encoding="iso-8859-1"?>
<!-- Generator: Adobe Illustrator 18.1.1, SVG Export Plug-In . SVG Version: 6.00 Build 0)  -->
<svg version="1.1" id="Capa_1" xmlns="http://www.w3.org/2000/svg" xmlns:xlink="http://www.w3.org/1999/xlink" x="0px" y="0px"
	 viewBox="0 0 475 475" style="enable-background:new 0 0 475 475;" xml:space="preserve">
<g>
	<g>
		<g>
			<path style="fill:#090509;" d="M238,0C107,0,0,107,0,238s107,237,238,237s237-106,237-237S369,0,238,0z M238,432
				c-107,0-194-87-194-194S131,44,238,44s194,87,194,194S345,432,238,432z"/>
			<path style="fill:#090509;" d="M270,323l-20,9l26-133c3-14-12-29-28-20l-49,27c-9,5-12,17-7,26s17,12,26,7l12-6l-25,127
				c-2,11,7,23,19,23c3,0,6-1,8-2l53-23c10-4,14-15,10-25S280,319,270,323z"/>
			<path style="fill:#090509;" d="M257,143c15,0,27-12,27-27s-12-27-27-27s-27,12-27,27S242,143,257,143z"/>
		</g>
	</g>
</g>
<g>
</g>
<g>
</g>
<g>
</g>
<g>
</g>
<g>
</g>
<g>
</g>
<g>
</g>
<g>
</g>
<g>
</g>
<g>
</g>
<g>
</g>
<g>
</g>
<g>
</g>
<g>
</g>
<g>
</g>
</svg>
